HIERARCHY
ROOT Hips
{
	OFFSET -3.958830 18.904000 13.208200
	CHANNELS 6 Xposition Yposition Zposition Zrotation Yrotation Xrotation 
	JOINT LHipJoint
	{
		OFFSET 0.000000 0.000000 0.000000
		CHANNELS 3 Zrotation Yrotation Xrotation
		JOINT LeftUpLeg
		{
			OFFSET 1.800000 -1.400000 0.085000
			CHANNELS 3 Zrotation Yrotation Xrotation
			JOINT LeftLeg
			{
				OFFSET 2.215000 -6.000000 0.000000
				CHANNELS 3 Zrotation Yrotation Xrotation
				JOINT LeftFoot
				{
					OFFSET 2.500000 -6.900000 0.000000
					CHANNELS 3 Zrotation Yrotation Xrotation
					JOINT LeftToeBase
					{
						OFFSET 0.200000 -0.500000 1.950000
						CHANNELS 3 Zrotation Yrotation Xrotation
						End Site
						{
							OFFSET 0.000000 0.000000 0.000000
						}
					}
				}
			}
		}
	}
	JOINT RHipJoint
	{
		OFFSET 0.000000 0.000000 0.000000
		CHANNELS 3 Zrotation Yrotation Xrotation
		JOINT RightUpLeg
		{
			OFFSET -1.800000 -1.400000 0.085000
			CHANNELS 3 Zrotation Yrotation Xrotation
			JOINT RightLeg
			{
				OFFSET -2.215000 -6.000000 0.000000
				CHANNELS 3 Zrotation Yrotation Xrotation
				JOINT RightFoot
				{
					OFFSET -2.500000 -6.900000 0.000000
					CHANNELS 3 Zrotation Yrotation Xrotation
					JOINT RightToeBase
					{
						OFFSET -0.200000 -0.500000 1.950000
						CHANNELS 3 Zrotation Yrotation Xrotation
						End Site
						{
							OFFSET 0.000000 0.000000 0.000000
						}
					}
				}
			}
		}
	}
	JOINT LowerBack
	{
		OFFSET 0.000000 0.000000 0.000000
		CHANNELS 3 Zrotation Yrotation Xrotation
		JOINT Spine
		{
			OFFSET -0.087000 1.940000 -0.288900
			CHANNELS 3 Zrotation Yrotation Xrotation
			JOINT Spine1
			{
				OFFSET 0.000000 1.950000 0.060000
				CHANNELS 3 Zrotation Yrotation Xrotation
				JOINT Neck
				{
					OFFSET 0.000000 0.000000 0.000000
					CHANNELS 3 Zrotation Yrotation Xrotation
					JOINT Neck1
					{
						OFFSET 0.000000 1.600000 0.340000
						CHANNELS 3 Zrotation Yrotation Xrotation
						JOINT Head
						{
							OFFSET 0.000000 1.667000 -0.240000
							CHANNELS 3 Zrotation Yrotation Xrotation
							End Site
							{
								OFFSET 0.000000 0.000000 0.000000
							}
						}
					}
				}
				JOINT LeftShoulder
				{
					OFFSET 0.000000 0.000000 0.000000
					CHANNELS 3 Zrotation Yrotation Xrotation
					JOINT LeftArm
					{
						OFFSET 2.700000 1.550000 -0.730000
						CHANNELS 3 Zrotation Yrotation Xrotation
						JOINT LeftForeArm
						{
							OFFSET 5.450000 0.000000 0.000000
							CHANNELS 3 Zrotation Yrotation Xrotation
							JOINT LeftHand
							{
								OFFSET 3.450000 0.000000 0.000000
								CHANNELS 3 Zrotation Yrotation Xrotation
								JOINT LeftHandIndex1
								{
									OFFSET 0.750000 0.000000 0.000000
									CHANNELS 3 Zrotation Yrotation Xrotation
									End Site
									{
										OFFSET 0.000000 0.000000 0.000000
									}
								}
							}
						}
					}
				}
				JOINT RightShoulder
				{
					OFFSET 0.000000 0.000000 0.000000
					CHANNELS 3 Zrotation Yrotation Xrotation
					JOINT RightArm
					{
						OFFSET -2.700000 1.550000 -0.730000
						CHANNELS 3 Zrotation Yrotation Xrotation
						JOINT RightForeArm
						{
							OFFSET -5.450000 0.000000 0.000000
							CHANNELS 3 Zrotation Yrotation Xrotation
							JOINT RightHand
							{
								OFFSET -3.450000 0.000000 0.000000
								CHANNELS 3 Zrotation Yrotation Xrotation
								JOINT RightHandIndex1
								{
									OFFSET -0.750000 0.000000 0.000000
									CHANNELS 3 Zrotation Yrotation Xrotation
									End Site
									{
										OFFSET 0.000000 0.000000 0.000000
									}
								}
							}
						}
					}
				}
			}
		}
	}
}
MOTION
Frames: 9
Frame Time: 0.016667
-0.267540 16.325630 -7.169700 -1.318235 -5.069980 -7.332064 -14.679271 10.987343 4.380022 5.892469 3.182617 -44.688759 -15.295428 19.370433 42.802983 0.635876 9.999200 1.033265 0.243300 0.265990 -0.000390 18.827850 -11.120248 3.706035 7.377895 5.309446 -7.084559 17.496585 -7.590172 21.192634 -0.964447 -4.893396 2.501243 0.066390 0.425800 0.203810 -4.958097 2.749144 -9.507973 7.289496 6.640442 39.726787 -11.104855 15.782848 12.287035 -1.438103 -11.688702 -23.226685 -17.229447 0.016318 37.473364 9.817550 -6.431000 -27.861040 1.818770 -16.331809 7.727440 -7.938501 11.308226 -6.124905 24.966633 10.329030 0.392422 -4.179865 2.669260 0.661080 -0.174220 0.307830 0.246800 4.537667 37.177500 17.619830 19.562536 50.879243 -13.135083 -17.557992 33.948407 -6.330959 2.633813 -0.700169 -0.159670 0.596880 0.102190 0.228260 
-0.285530 16.304660 -7.170730 -0.987851 -5.396903 -7.077829 -14.688166 10.918307 4.368587 5.175622 2.686767 -44.526370 -16.684720 19.747797 42.281590 0.625959 10.052030 1.007414 0.266110 0.282800 0.021470 18.850140 -11.037009 3.655851 7.117239 5.771981 -7.595058 17.908959 -7.766212 22.080917 -0.985787 -4.986811 2.445863 0.091870 0.411280 0.206500 -4.994444 2.751506 -9.301268 6.091141 6.863925 38.732213 -11.190694 15.872523 13.242445 -1.745154 -10.886223 -22.413198 -15.863601 -0.263529 36.356725 9.929230 -6.220760 -28.726180 1.856936 -15.990852 7.683442 -8.093635 10.820927 -5.824374 23.749647 10.588471 0.304542 -4.219104 2.604622 0.685920 -0.183820 0.313160 0.234390 4.825821 36.327780 17.738127 19.783235 50.786473 -11.978393 -17.607027 31.262376 -5.961199 2.420855 -0.828014 -0.170800 0.601260 0.111190 0.208490 
-0.302470 16.273420 -7.174190 -1.328724 -6.069452 -6.911157 -14.653918 10.808343 4.315760 4.466629 2.191917 -43.856609 -18.058317 19.903680 41.463072 0.631565 9.988706 1.017651 0.295590 0.325070 0.032090 18.909856 -11.036260 3.656149 7.613488 5.946329 -7.758945 18.069699 -7.863692 22.529405 -1.016354 -5.045386 2.408404 0.116340 0.391060 0.219540 -5.134723 2.980583 -9.128732 5.658822 6.527251 37.993566 -12.148614 16.044869 13.984863 -2.029688 -9.878087 -21.931956 -14.259952 -0.258713 35.451694 10.153120 -5.707410 -29.236230 1.834216 -15.730984 7.577536 -7.483045 10.206740 -5.575369 22.459762 11.036298 0.195981 -4.272927 2.537544 0.692800 -0.190300 0.330590 0.230900 5.169925 35.201399 18.388623 20.942960 50.273797 -10.175548 -17.273170 27.272912 -5.361772 2.249939 -0.988257 -0.154260 0.589240 0.109550 0.204220 
-0.325110 16.248520 -7.178330 -1.416615 -6.817502 -7.139945 -14.629765 10.699905 4.280862 3.709705 1.591485 -42.934257 -19.571386 20.311761 41.062177 0.693904 10.033988 1.007446 0.300600 0.331660 0.030910 18.953155 -11.024007 3.664849 7.549114 6.397898 -7.913916 18.976045 -8.185364 23.285950 -1.063033 -5.210439 2.338698 0.112040 0.376550 0.231480 -5.240087 3.199504 -9.000155 4.714158 6.522328 38.072354 -12.578059 16.074462 13.741989 -2.655226 -9.199728 -21.155283 -13.296978 0.110269 34.858240 10.572080 -5.146000 -29.301970 1.401539 -15.824886 7.791659 -7.531626 10.297772 -5.377182 21.512867 10.903662 0.105975 -4.284653 2.498039 0.700440 -0.199730 0.342970 0.225640 6.659276 34.285613 18.110814 24.867095 47.327864 -8.789481 -16.271344 25.255812 -5.010545 2.130086 -1.135763 -0.140040 0.568220 0.112190 0.202640 
-0.342310 16.220520 -7.189680 -1.898040 -7.844966 -7.866699 -14.610226 10.684127 4.192320 2.982795 1.173428 -41.225737 -20.840342 20.413262 40.379781 0.761208 9.892832 1.059936 0.364450 0.424380 0.070680 18.972591 -11.043243 3.716799 7.957426 6.524980 -7.235728 19.715037 -8.430967 23.722847 -1.150015 -5.342619 2.281950 0.142520 0.310850 0.207690 -5.296457 3.332920 -8.910476 4.113397 6.557445 39.155201 -12.477547 16.290589 12.856307 -3.141590 -9.253298 -20.435682 -13.535796 0.153750 34.749591 11.486500 -4.929870 -30.815660 1.136449 -15.865142 7.803534 -7.892933 9.112280 -5.248036 20.213414 11.637648 0.144343 -4.217063 2.481513 0.719800 -0.264410 0.397070 0.247580 7.919828 34.137749 16.954087 28.204927 42.452069 -6.428021 -14.572413 21.189517 -3.999948 2.241443 -1.207661 -0.108980 0.557410 0.047340 0.214680 
-0.351740 16.168000 -7.196670 -2.708472 -8.616573 -7.676951 -14.566000 10.462918 4.196778 2.107976 0.370787 -41.084618 -21.294795 20.554409 40.916774 0.790586 9.925669 1.046163 0.482770 0.562710 0.125310 19.047351 -11.059852 3.765219 8.623817 7.179022 -7.740983 20.426375 -8.777131 25.137239 -1.227801 -5.548818 2.204686 0.226070 0.263900 0.190400 -5.488912 3.776007 -8.882548 4.537127 6.000676 39.256451 -13.271324 16.407484 11.952846 -3.825884 -8.770355 -18.769935 -12.382854 0.055224 32.888113 12.657250 -4.737440 -31.710840 1.802484 -15.400181 7.568130 -8.896803 7.273930 -5.011001 19.202499 11.964827 0.141108 -4.154310 2.522744 0.725020 -0.301010 0.418510 0.292710 8.225081 33.067127 15.039329 31.633731 37.541524 -3.969823 -12.442913 18.136995 -3.110133 2.305784 -1.272690 -0.085590 0.542180 -0.032660 0.219150 
-0.371830 16.132960 -7.208080 -3.640232 -9.132774 -7.722990 -14.543652 10.322324 4.215810 1.553287 -0.331097 -40.745177 -21.621659 20.667699 41.525823 0.837386 10.011613 1.030175 0.503470 0.595850 0.139730 19.093209 -11.055238 3.805964 9.716664 7.351060 -7.700377 20.478967 -8.973221 25.948171 -1.267014 -5.637335 2.177024 0.243110 0.253530 0.175300 -5.602176 4.017550 -8.873753 4.776959 5.367121 39.898662 -14.182377 16.179390 10.725670 -4.081159 -8.417441 -17.641333 -11.751050 0.120572 31.889735 13.031180 -4.465910 -32.196530 1.947399 -15.092574 7.435762 -9.839209 6.318939 -4.956389 19.205746 11.900593 0.165128 -4.115602 2.530076 0.726310 -0.313600 0.427650 0.299380 8.206495 32.209311 13.877414 34.475870 32.902220 -3.270613 -12.223885 16.643037 -2.896689 2.336139 -1.280281 -0.083400 0.551680 -0.052200 0.221810 
-0.388320 16.091200 -7.222740 -4.625466 -10.602981 -7.873915 -14.517096 10.220411 4.180486 1.421857 -0.524970 -39.976320 -22.402101 20.670211 41.003001 0.796665 9.984302 1.033404 0.523730 0.604180 0.185010 19.132556 -11.069805 3.870344 10.386628 7.755266 -7.360575 21.147113 -9.335306 26.823088 -1.335754 -5.821391 2.099371 0.262690 0.235690 0.166220 -5.724541 4.279131 -8.845268 5.033410 4.825616 40.365560 -15.732167 16.171339 10.021951 -3.657712 -7.968259 -16.884834 -10.932090 0.750243 30.987193 12.451100 -3.440400 -32.813910 3.222591 -14.628587 7.509949 -11.854671 6.490308 -4.882816 18.963419 10.931949 0.092917 -4.075025 2.506185 0.769760 -0.328430 0.443620 0.288150 5.768051 31.655820 13.109926 36.989079 30.128769 -1.187207 -10.961932 13.070461 -2.011204 2.378906 -1.225237 -0.111910 0.571180 -0.055200 0.191100 
-0.431700 16.038290 -7.228310 -5.043061 -12.632380 -7.963401 -14.503643 10.104899 4.142731 1.475435 -0.440127 -39.288481 -23.626474 21.179360 40.614405 0.768682 10.146073 0.959818 0.531690 0.598230 0.190750 19.163045 -11.067529 3.928022 10.910257 8.433187 -7.181768 21.772551 -9.787577 28.290656 -1.401516 -6.107922 1.978681 0.287680 0.253210 0.190510 -5.834675 4.552448 -8.815599 4.152873 5.290205 40.250749 -16.232201 16.780995 10.379994 -3.816034 -7.312090 -16.357203 -9.510575 1.488396 29.391838 11.972860 -2.429790 -32.493550 5.678965 -14.207249 7.101852 -15.125083 5.502409 -5.183514 19.772198 10.376416 0.038896 -4.119365 2.534445 0.787410 -0.304510 0.429510 0.269650 3.599722 31.232492 13.282866 38.962511 27.247092 -0.444171 -10.661524 10.321769 -1.504917 2.361249 -1.226387 -0.132460 0.577270 -0.012290 0.164590 
